# Create and save a .drawio file containing the Collaboration Class Diagram using the provided minimal structure

collab_class_drawio = '''<mxfile host="app.diagrams.net" version="26.2.12">
  <diagram name="Collaboration Class Diagram" id="dIue5N3KtkGz_4be8HRj">
    <mxGraphModel>
      <root>
        <mxCell id="0" />
        <mxCell id="1" parent="0" />

        <!-- User base class -->
        <mxCell id="2" value="User\n- id: int\n- name: string\n- role: enum\n- tokens: int" style="shape=rectangle;whiteSpace=wrap;html=1;" vertex="1" parent="1">
          <mxGeometry x="40" y="40" width="160" height="80" as="geometry"/>
        </mxCell>

        <!-- FreeUser -->
        <mxCell id="3" value="FreeUser\n(inherits User)" style="shape=rectangle;whiteSpace=wrap;html=1;" vertex="1" parent="1">
          <mxGeometry x="240" y="40" width="140" height="60" as="geometry"/>
        </mxCell>

        <!-- PaidUser -->
        <mxCell id="4" value="PaidUser\n(inherits User)\n- stats: Statistics\n- collaborations" style="shape=rectangle;whiteSpace=wrap;html=1;" vertex="1" parent="1">
          <mxGeometry x="240" y="120" width="180" height="80" as="geometry"/>
        </mxCell>

        <!-- SuperUser -->
        <mxCell id="5" value="SuperUser\n(inherits User)\n+ canSuspend()\n+ handleComplaint()" style="shape=rectangle;whiteSpace=wrap;html=1;" vertex="1" parent="1">
          <mxGeometry x="240" y="220" width="180" height="80" as="geometry"/>
        </mxCell>

        <!-- TextSubmission -->
        <mxCell id="6" value="TextSubmission\n- content: string\n- status: string\n- owner: User" style="shape=rectangle;whiteSpace=wrap;html=1;" vertex="1" parent="1">
          <mxGeometry x="40" y="160" width="180" height="80" as="geometry"/>
        </mxCell>

        <!-- TokenManager -->
        <mxCell id="7" value="TokenManager\n+ chargeTokens()\n+ addBonus()" style="shape=rectangle;whiteSpace=wrap;html=1;" vertex="1" parent="1">
          <mxGeometry x="460" y="40" width="180" height="60" as="geometry"/>
        </mxCell>

        <!-- Complaint -->
        <mxCell id="8" value="Complaint\n- filedBy\n- against\n- status" style="shape=rectangle;whiteSpace=wrap;html=1;" vertex="1" parent="1">
          <mxGeometry x="460" y="120" width="180" height="60" as="geometry"/>
        </mxCell>

        <!-- CollaborationSession -->
        <mxCell id="9" value="CollaborationSession\n- participants\n- document" style="shape=rectangle;whiteSpace=wrap;html=1;" vertex="1" parent="1">
          <mxGeometry x="460" y="200" width="180" height="60" as="geometry"/>
        </mxCell>

        <!-- Statistics -->
        <mxCell id="10" value="Statistics\n- textsSubmitted\n- correctionsUsed" style="shape=rectangle;whiteSpace=wrap;html=1;" vertex="1" parent="1">
          <mxGeometry x="460" y="280" width="180" height="60" as="geometry"/>
        </mxCell>

        <!-- Relationships -->
        <mxCell id="11" style="endArrow=block;" edge="1" parent="1" source="4" target="10">
          <mxGeometry relative="1" as="geometry"/>
        </mxCell>

        <mxCell id="12" style="endArrow=block;" edge="1" parent="1" source="2" target="6">
          <mxGeometry relative="1" as="geometry"/>
        </mxCell>

        <mxCell id="13" style="endArrow=block;" edge="1" parent="1" source="4" target="9">
          <mxGeometry relative="1" as="geometry"/>
        </mxCell>

        <mxCell id="14" style="endArrow=block;" edge="1" parent="1" source="2" target="7">
          <mxGeometry relative="1" as="geometry"/>
        </mxCell>

        <mxCell id="15" style="endArrow=block;" edge="1" parent="1" source="4" target="8">
          <mxGeometry relative="1" as="geometry"/>
        </mxCell>

        <mxCell id="16" style="endArrow=block;" edge="1" parent="1" source="5" target="8">
          <mxGeometry relative="1" as="geometry"/>
        </mxCell>
      </root>
    </mxGraphModel>
  </diagram>
</mxfile>
'''

# Save it to a file
drawio_path = "/mnt/data/Collaboration_Class_Diagram_Final.drawio"
with open(drawio_path, "w") as file:
    file.write(collab_class_drawio)

drawio_path
